<svg width="12" height="12" viewBox="0 0 12 12" fill="none" xmlns="http://www.w3.org/2000/svg">
<path d="M8 11.375H4C2.175 11.375 1.125 10.325 1.125 8.5V3.5C1.125 1.675 2.175 0.625 4 0.625H8C9.825 0.625 10.875 1.675 10.875 3.5V8.5C10.875 10.325 9.825 11.375 8 11.375ZM4 1.375C2.57 1.375 1.875 2.07 1.875 3.5V8.5C1.875 9.93 2.57 10.625 4 10.625H8C9.43 10.625 10.125 9.93 10.125 8.5V3.5C10.125 2.07 9.43 1.375 8 1.375H4Z" fill="#ACCE39"/>
<path d="M4.5 5.55499C4.415 5.55499 4.33 5.54 4.25 5.505C4.02 5.405 3.875 5.18 3.875 4.935V1C3.875 0.795 4.045 0.625 4.25 0.625H7.75C7.955 0.625 8.125 0.795 8.125 1V4.92999C8.125 5.17999 7.98 5.405 7.75 5.5C7.525 5.6 7.26001 5.55501 7.07501 5.38501L6 4.39999L4.92499 5.39001C4.80499 5.50001 4.655 5.55499 4.5 5.55499ZM6 3.60501C6.15 3.60501 6.30499 3.65999 6.42499 3.76999L7.375 4.64499V1.375H4.625V4.64499L5.57501 3.76999C5.69501 3.65999 5.85 3.60501 6 3.60501Z" fill="#ACCE39"/>
<path d="M8.75 7.375H6.625C6.42 7.375 6.25 7.205 6.25 7C6.25 6.795 6.42 6.625 6.625 6.625H8.75C8.955 6.625 9.125 6.795 9.125 7C9.125 7.205 8.955 7.375 8.75 7.375Z" fill="#ACCE39"/>
<path d="M8.75 9.375H4.5C4.295 9.375 4.125 9.205 4.125 9C4.125 8.795 4.295 8.625 4.5 8.625H8.75C8.955 8.625 9.125 8.795 9.125 9C9.125 9.205 8.955 9.375 8.75 9.375Z" fill="#ACCE39"/>
</svg>
