<svg width="40" height="40" viewBox="0 0 40 40" fill="none" xmlns="http://www.w3.org/2000/svg">
<path d="M5.06353 2.22656C4.04965 2.22656 3.21338 3.0616 3.21338 4.07671V36.146C3.21338 37.1599 4.04965 37.9961 5.06353 37.9961H9.99726C11.0124 37.9961 11.8474 37.1599 11.8474 36.146V4.07671C11.8474 3.0616 11.0124 2.22656 9.99726 2.22656H5.06353ZM5.06353 3.46H9.99726C10.35 3.46 10.614 3.72395 10.614 4.07671V36.146C10.614 36.4975 10.35 36.7627 9.99726 36.7627H5.06353C4.98199 36.7647 4.90088 36.7502 4.82514 36.7199C4.7494 36.6896 4.6806 36.6443 4.62292 36.5866C4.56525 36.5289 4.51989 36.4601 4.48962 36.3844C4.45935 36.3086 4.44478 36.2275 4.44681 36.146V4.07671C4.44681 3.72395 4.712 3.46 5.06353 3.46Z" fill="white"/>
<path d="M3.83008 7.16028V8.39371H11.2307V7.16028H3.83008ZM3.83008 9.62715V10.8606H11.2307V9.62715H3.83008ZM3.83008 12.094V13.3274H11.2307V12.094H3.83008Z" fill="white"/>
<path d="M13.6976 37.9961C12.6837 37.9961 11.8474 37.1598 11.8474 36.1459V4.07667C11.8474 3.06155 12.6837 2.22652 13.6976 2.22652H18.6313C19.6464 2.22652 20.4814 3.06155 20.4814 4.07667V36.1459C20.4814 37.1598 19.6464 37.9961 18.6313 37.9961H13.6976ZM13.6976 36.7627H18.6313C18.9841 36.7627 19.248 36.4975 19.248 36.1459V4.07667C19.248 3.7239 18.9841 3.45995 18.6313 3.45995H13.6976C13.616 3.45792 13.5349 3.47248 13.4592 3.50276C13.3834 3.53303 13.3146 3.57838 13.257 3.63606C13.1993 3.69374 13.1539 3.76254 13.1237 3.83828C13.0934 3.91402 13.0788 3.99512 13.0808 4.07667V36.1459C13.0808 36.4975 13.346 36.7627 13.6976 36.7627Z" fill="white"/>
<path d="M12.4641 31.829V33.0624H19.8647V31.829H12.4641ZM12.4641 29.3621V30.5956H19.8647V29.3621H12.4641ZM12.4641 26.8953V28.1287H19.8647V26.8953H12.4641Z" fill="white"/>
<path d="M21.1503 36.3775C20.1698 36.1148 19.5797 35.0909 19.8421 34.1116L28.1422 3.13503C28.4049 2.1545 29.4276 1.56405 30.4082 1.82678L35.1738 3.10372C36.1531 3.36613 36.7448 4.38916 36.4821 5.36969L28.1819 36.3462C27.9195 37.3256 26.8953 37.9169 25.916 37.6545L21.1503 36.3775ZM21.4696 35.1861L26.2352 36.4631C26.5747 36.5541 26.8995 36.3665 26.9905 36.027L35.2906 5.05045C35.3819 4.70971 35.1941 4.38611 34.8546 4.29513L30.0889 3.01818C30.0107 2.99512 29.9286 2.98819 29.8476 2.99783C29.7666 3.00747 29.6884 3.03347 29.6178 3.07426C29.5471 3.11504 29.4855 3.16975 29.4367 3.23508C29.3878 3.30041 29.3528 3.37498 29.3336 3.45427L21.0335 34.4308C20.9425 34.7704 21.1288 35.0948 21.4696 35.1861Z" fill="white"/>
<path d="M21.5533 30.1009L21.2363 31.2937L28.384 33.2092L28.7047 32.0165L21.5533 30.1009ZM22.1922 27.7179L21.874 28.9082L29.0217 30.8262L29.3424 29.6335L22.1922 27.7179ZM22.8336 25.3362L22.5129 26.5264L29.6606 28.4407L29.9813 27.2517L22.8336 25.3362Z" fill="white"/>
</svg>
