<svg width="43" height="43" viewBox="0 0 43 43" fill="none" xmlns="http://www.w3.org/2000/svg">
<path opacity="0.4" d="M33.75 18.49V31.0025C33.6975 35.99 32.3324 37.25 27.1349 37.25H10.6151C5.33005 37.25 4 35.9375 4 30.7225V18.49C4 13.765 5.1025 12.2425 9.25 11.9975C9.67 11.98 10.1251 11.9625 10.6151 11.9625H27.1349C32.4199 11.9625 33.75 13.275 33.75 18.49Z" fill="#ACCE39"/>
<path d="M39 12.2775V24.51C39 29.235 37.8975 30.7575 33.75 31.0025V18.49C33.75 13.275 32.4199 11.9625 27.1349 11.9625H10.6151C10.1251 11.9625 9.67 11.98 9.25 11.9975C9.3025 7.01 10.6676 5.75 15.8651 5.75H32.3849C37.6699 5.75 39 7.0625 39 12.2775Z" fill="#ACCE39"/>
<path d="M12.68 32.98H9.66992C8.95242 32.98 8.35742 32.385 8.35742 31.6675C8.35742 30.95 8.95242 30.355 9.66992 30.355H12.68C13.3975 30.355 13.9925 30.95 13.9925 31.6675C13.9925 32.385 13.415 32.98 12.68 32.98Z" fill="#ACCE39"/>
<path d="M22.4624 32.98H16.4424C15.7249 32.98 15.1299 32.385 15.1299 31.6675C15.1299 30.95 15.7249 30.355 16.4424 30.355H22.4624C23.1799 30.355 23.7749 30.95 23.7749 31.6675C23.7749 32.385 23.1974 32.98 22.4624 32.98Z" fill="#ACCE39"/>
<path d="M33.75 21.255H4V23.88H33.75V21.255Z" fill="#ACCE39"/>
</svg>
