<svg width="38" height="38" viewBox="0 0 38 38" fill="none" xmlns="http://www.w3.org/2000/svg">
<path d="M34.8334 7.39426V26.5051C34.8334 28.0251 33.5984 29.4501 32.0784 29.6401L31.5558 29.7035C28.1042 30.1626 22.7841 31.9201 19.7441 33.5984C19.3325 33.8359 18.6517 33.8359 18.2242 33.5984L18.1608 33.5668C15.1208 31.9043 9.81673 30.1626 6.3809 29.7035L5.92167 29.6401C4.40167 29.4501 3.16669 28.0251 3.16669 26.5051V7.37841C3.16669 5.49425 4.70248 4.06926 6.58664 4.2276C9.91164 4.49676 14.9466 6.17514 17.765 7.93264L18.1608 8.17008C18.62 8.45508 19.3801 8.45508 19.8392 8.17008L20.1084 7.99594C21.1059 7.37844 22.3725 6.76093 23.75 6.20676V12.6668L26.9167 10.5609L30.0834 12.6668V4.40184C30.5109 4.32267 30.9225 4.27511 31.3025 4.24344H31.3975C33.2817 4.08511 34.8334 5.49426 34.8334 7.39426Z" stroke="white" stroke-width="1.5" stroke-linecap="round" stroke-linejoin="round"/>
<path d="M19 8.69238V32.4424" stroke="white" stroke-width="1.5" stroke-linecap="round" stroke-linejoin="round"/>
<path d="M30.0833 4.40161V12.6666L26.9167 10.5607L23.75 12.6666V6.20654C25.8242 5.3832 28.1358 4.71828 30.0833 4.40161Z" stroke="white" stroke-width="1.5" stroke-linecap="round" stroke-linejoin="round"/>
</svg>
