<svg width="89" height="89" viewBox="0 0 89 89" fill="none" xmlns="http://www.w3.org/2000/svg">
<g filter="url(#filter0_d_24_13208)">
<rect x="13" y="9" width="63" height="63" rx="31.5" fill="#ACCE39"/>
</g>
<path d="M30.0635 23.2266C29.0496 23.2266 28.2134 24.0616 28.2134 25.0767V57.146C28.2134 58.1599 29.0496 58.9961 30.0635 58.9961H34.9973C36.0124 58.9961 36.8474 58.1599 36.8474 57.146V25.0767C36.8474 24.0616 36.0124 23.2266 34.9973 23.2266H30.0635ZM30.0635 24.46H34.9973C35.35 24.46 35.614 24.724 35.614 25.0767V57.146C35.614 57.4975 35.35 57.7627 34.9973 57.7627H30.0635C29.982 57.7647 29.9009 57.7502 29.8251 57.7199C29.7494 57.6896 29.6806 57.6443 29.6229 57.5866C29.5652 57.5289 29.5199 57.4601 29.4896 57.3844C29.4593 57.3086 29.4448 57.2275 29.4468 57.146V25.0767C29.4468 24.724 29.712 24.46 30.0635 24.46Z" fill="white"/>
<path d="M28.8301 28.1603V29.3937H36.2307V28.1603H28.8301ZM28.8301 30.6271V31.8606H36.2307V30.6271H28.8301ZM28.8301 33.094V34.3274H36.2307V33.094H28.8301Z" fill="white"/>
<path d="M38.6976 58.9961C37.6837 58.9961 36.8474 58.1598 36.8474 57.1459V25.0767C36.8474 24.0616 37.6837 23.2265 38.6976 23.2265H43.6313C44.6464 23.2265 45.4814 24.0616 45.4814 25.0767V57.1459C45.4814 58.1598 44.6464 58.9961 43.6313 58.9961H38.6976ZM38.6976 57.7627H43.6313C43.9841 57.7627 44.248 57.4975 44.248 57.1459V25.0767C44.248 24.7239 43.9841 24.4599 43.6313 24.4599H38.6976C38.616 24.4579 38.5349 24.4725 38.4592 24.5028C38.3834 24.533 38.3146 24.5784 38.257 24.6361C38.1993 24.6937 38.1539 24.7625 38.1237 24.8383C38.0934 24.914 38.0788 24.9951 38.0808 25.0767V57.1459C38.0808 57.4975 38.346 57.7627 38.6976 57.7627Z" fill="white"/>
<path d="M37.4641 52.829V54.0624H44.8647V52.829H37.4641ZM37.4641 50.3621V51.5956H44.8647V50.3621H37.4641ZM37.4641 47.8953V49.1287H44.8647V47.8953H37.4641Z" fill="white"/>
<path d="M46.1503 57.3775C45.1698 57.1148 44.5797 56.0909 44.8421 55.1116L53.1422 24.135C53.4049 23.1545 54.4276 22.564 55.4082 22.8268L60.1738 24.1037C61.1531 24.3661 61.7448 25.3892 61.4821 26.3697L53.1819 57.3462C52.9195 58.3256 51.8953 58.9169 50.916 58.6545L46.1503 57.3775ZM46.4696 56.1861L51.2352 57.4631C51.5747 57.5541 51.8995 57.3665 51.9905 57.027L60.2906 26.0504C60.3819 25.7097 60.1941 25.3861 59.8546 25.2951L55.0889 24.0182C55.0107 23.9951 54.9286 23.9882 54.8476 23.9978C54.7666 24.0075 54.6884 24.0335 54.6178 24.0743C54.5471 24.115 54.4855 24.1698 54.4367 24.2351C54.3878 24.3004 54.3528 24.375 54.3336 24.4543L46.0335 55.4308C45.9425 55.7704 46.1288 56.0948 46.4696 56.1861Z" fill="white"/>
<path d="M46.5533 51.1009L46.2363 52.2937L53.3841 54.2092L53.7048 53.0165L46.5533 51.1009ZM47.1922 48.7179L46.874 49.9082L54.0218 51.8262L54.3425 50.6335L47.1922 48.7179ZM47.8336 46.3362L47.5129 47.5264L54.6607 49.4407L54.9814 48.2517L47.8336 46.3362Z" fill="white"/>
<defs>
<filter id="filter0_d_24_13208" x="0" y="0" width="89" height="89" filterUnits="userSpaceOnUse" color-interpolation-filters="sRGB">
<feFlood flood-opacity="0" result="BackgroundImageFix"/>
<feColorMatrix in="SourceAlpha" type="matrix" values="0 0 0 0 0 0 0 0 0 0 0 0 0 0 0 0 0 0 127 0" result="hardAlpha"/>
<feOffset dy="4"/>
<feGaussianBlur stdDeviation="6.5"/>
<feComposite in2="hardAlpha" operator="out"/>
<feColorMatrix type="matrix" values="0 0 0 0 0 0 0 0 0 0 0 0 0 0 0 0 0 0 0.1 0"/>
<feBlend mode="normal" in2="BackgroundImageFix" result="effect1_dropShadow_24_13208"/>
<feBlend mode="normal" in="SourceGraphic" in2="effect1_dropShadow_24_13208" result="shape"/>
</filter>
</defs>
</svg>
