<svg width="25" height="25" viewBox="0 0 25 25" fill="none" xmlns="http://www.w3.org/2000/svg">
<path d="M17.1028 10.5H19.1028C21.1028 10.5 22.1028 9.5 22.1028 7.5V5.5C22.1028 3.5 21.1028 2.5 19.1028 2.5H17.1028C15.1028 2.5 14.1028 3.5 14.1028 5.5V7.5C14.1028 9.5 15.1028 10.5 17.1028 10.5Z" stroke="white" stroke-width="1.5" stroke-miterlimit="10" stroke-linecap="round" stroke-linejoin="round"/>
<path d="M5.10278 22.5H7.10278C9.10278 22.5 10.1028 21.5 10.1028 19.5V17.5C10.1028 15.5 9.10278 14.5 7.10278 14.5H5.10278C3.10278 14.5 2.10278 15.5 2.10278 17.5V19.5C2.10278 21.5 3.10278 22.5 5.10278 22.5Z" stroke="white" stroke-width="1.5" stroke-miterlimit="10" stroke-linecap="round" stroke-linejoin="round"/>
<path d="M6.10278 10.5C8.31192 10.5 10.1028 8.70914 10.1028 6.5C10.1028 4.29086 8.31192 2.5 6.10278 2.5C3.89364 2.5 2.10278 4.29086 2.10278 6.5C2.10278 8.70914 3.89364 10.5 6.10278 10.5Z" stroke="white" stroke-width="1.5" stroke-miterlimit="10" stroke-linecap="round" stroke-linejoin="round"/>
<path d="M18.1028 22.5C20.3119 22.5 22.1028 20.7091 22.1028 18.5C22.1028 16.2909 20.3119 14.5 18.1028 14.5C15.8936 14.5 14.1028 16.2909 14.1028 18.5C14.1028 20.7091 15.8936 22.5 18.1028 22.5Z" stroke="#ACCE39" stroke-width="1.5" stroke-miterlimit="10" stroke-linecap="round" stroke-linejoin="round"/>
</svg>
