<svg width="25" height="25" viewBox="0 0 25 25" fill="none" xmlns="http://www.w3.org/2000/svg">
<path d="M10.1519 9.55005C11.9319 10.2 13.8719 10.2 15.6519 9.55005" stroke="white" stroke-width="1.5" stroke-linecap="round" stroke-linejoin="round"/>
<path d="M17.7219 2.5H8.08186C5.95186 2.5 4.22186 4.24 4.22186 6.36V20.45C4.22186 22.25 5.51186 23.01 7.09186 22.14L11.9719 19.43C12.4919 19.14 13.3319 19.14 13.8419 19.43L18.7219 22.14C20.3019 23.02 21.5919 22.26 21.5919 20.45V6.36C21.5819 4.24 19.8519 2.5 17.7219 2.5Z" stroke="white" stroke-width="1.5" stroke-linecap="round" stroke-linejoin="round"/>
<path d="M17.7219 2.5H8.08186C5.95186 2.5 4.22186 4.24 4.22186 6.36V20.45C4.22186 22.25 5.51186 23.01 7.09186 22.14L11.9719 19.43C12.4919 19.14 13.3319 19.14 13.8419 19.43L18.7219 22.14C20.3019 23.02 21.5919 22.26 21.5919 20.45V6.36C21.5819 4.24 19.8519 2.5 17.7219 2.5Z" stroke="white" stroke-width="1.5" stroke-linecap="round" stroke-linejoin="round"/>
</svg>
