<svg width="26" height="18" viewBox="0 0 26 18" fill="none" xmlns="http://www.w3.org/2000/svg">
<path d="M25.1209 2.81868C24.8242 1.71429 23.9506 0.840659 22.8462 0.543956C20.8517 0 12.8242 0 12.8242 0C12.8242 0 4.79671 0.0164835 2.8022 0.56044C1.6978 0.857143 0.824176 1.73077 0.527473 2.83517C-3.92998e-08 4.82967 0 9 0 9C0 9 -3.92998e-08 13.1703 0.543956 15.1813C0.84066 16.2857 1.71429 17.1593 2.81868 17.456C4.81319 18 12.8407 18 12.8407 18C12.8407 18 20.8681 18 22.8626 17.456C23.967 17.1593 24.8407 16.2857 25.1374 15.1813C25.6813 13.1868 25.6813 9 25.6813 9C25.6813 9 25.6648 4.82967 25.1209 2.81868Z" fill="#FF0000"/>
<path d="M10.2689 12.8569L16.9283 8.99972L10.2689 5.14258V12.8569Z" fill="white"/>
</svg>
