<svg width="52" height="35" viewBox="0 0 52 35" fill="none" xmlns="http://www.w3.org/2000/svg">
<path d="M14.4512 23.5116V6.09925C18.5434 4.05094 21.0989 4.67192 25.704 6.09925C30.2526 4.24337 32.706 4.57397 37.0161 6.09925V23.5116C32.2989 22.0142 29.7822 21.9337 25.704 24.2223C21.2759 22.3545 18.8066 21.9406 14.4512 23.5116Z" stroke="#ACCE39"/>
<path d="M4.3827 27.3018L1.03647 32.3211C0.593431 32.9857 1.06982 33.8758 1.86852 33.8758H49.5563C50.3634 33.8758 50.838 32.969 50.378 32.3058L46.9067 27.3018M4.3827 27.3018V3.12402C4.3827 2.01945 5.27813 1.12402 6.3827 1.12402H44.9067C46.0113 1.12402 46.9067 2.01945 46.9067 3.12402V27.3018M4.3827 27.3018H46.9067" stroke="black"/>
<path d="M16.5835 10.3632C17.7088 9.75125 20.7056 8.89445 23.6906 10.3632" stroke="#ACCE39"/>
<path d="M16.5835 16.8781C17.7088 16.2661 20.7056 15.4093 23.6906 16.8781" stroke="#ACCE39"/>
<path d="M27.7178 10.3452C28.8431 9.73318 31.8399 8.87638 34.8249 10.3452" stroke="#ACCE39"/>
<path d="M27.7178 16.8601C28.8431 16.2481 31.8399 15.3913 34.8249 16.8601" stroke="#ACCE39"/>
<path d="M25.7041 24.2224V6.09937" stroke="#ACCE39"/>
</svg>
