<svg width="316" height="100" viewBox="0 0 316 100" fill="none" xmlns="http://www.w3.org/2000/svg">
<g clip-path="url(#clip0_864_3106)">
<path d="M124.895 81.7283V84.9663H121.657V69.7224H127.187C128.848 69.7224 130.257 70.3112 131.434 71.4676C132.611 72.6451 133.179 74.0538 133.179 75.7149C133.179 77.3759 132.59 78.7847 131.434 79.9621C130.257 81.1396 128.848 81.7073 127.187 81.7073H124.874L124.895 81.7283ZM124.895 72.9605V78.4903H127.208C127.965 78.4903 128.616 78.217 129.163 77.6703C129.71 77.1236 129.983 76.4718 129.983 75.7149C129.983 74.9579 129.71 74.3061 129.163 73.7595C128.616 73.2128 127.965 72.9394 127.208 72.9394H124.895V72.9605Z" fill="#F3F3F3"/>
<path d="M145.206 69.7224H148.444V75.7149H154.899V69.7224H158.137V84.9663H154.899V78.9739H148.444V84.9663H145.206V69.7224Z" fill="#F3F3F3"/>
<path d="M178.007 79.2473V84.9663H174.769V79.2473L169.239 69.7435H172.981L176.388 75.6097L179.794 69.7435H183.516L177.986 79.2473H178.007Z" fill="#F3F3F3"/>
<path d="M196.236 80.2986C197.225 81.5601 198.339 82.1909 199.601 82.1909C200.336 82.1909 200.925 82.0437 201.388 81.7704C201.85 81.4971 202.082 81.0765 202.082 80.5299C202.04 80.0463 201.766 79.6678 201.241 79.4155L197.666 78.5534C196.573 78.217 195.69 77.6493 195.017 76.8924C194.344 76.1144 194.029 75.2733 194.029 74.3482C194.029 72.8133 194.575 71.5728 195.648 70.6476C196.72 69.7225 197.982 69.2599 199.411 69.2599C201.598 69.2599 203.406 70.0589 204.836 71.6569L202.334 73.6754C201.598 72.8764 200.694 72.4979 199.579 72.4979C198.844 72.4979 198.276 72.6451 197.876 72.9605C197.477 73.2759 197.267 73.6333 197.267 74.0749C197.267 74.6846 197.687 75.1682 198.528 75.5257L202.103 76.3667C204.226 77.1657 205.299 78.5534 205.299 80.5299C205.299 81.8335 204.815 82.9689 203.827 83.9571C202.839 84.9453 201.43 85.4289 199.579 85.4289C197.077 85.4289 195.059 84.3146 193.566 82.1068L196.215 80.2986H196.236Z" fill="#F3F3F3"/>
<path d="M220.837 69.7224V84.9663H217.599V69.7224H220.837Z" fill="#F3F3F3"/>
<path d="M246.636 83.053C245.059 84.6299 243.167 85.4079 240.938 85.4079C238.709 85.4079 236.796 84.6089 235.219 83.053C233.642 81.476 232.864 79.5627 232.864 77.3339C232.864 75.1051 233.642 73.2128 235.219 71.6358C236.796 70.0589 238.709 69.2809 240.938 69.2809C243.167 69.2809 245.059 70.0799 246.636 71.6358L244.344 73.9277C243.398 72.9815 242.262 72.4979 240.938 72.4979C239.613 72.4979 238.457 72.9815 237.511 73.9277C236.564 74.8738 236.081 76.0093 236.081 77.3339C236.081 78.6585 236.564 79.815 237.511 80.7611C238.457 81.7073 239.613 82.1909 240.938 82.1909C242.262 82.1909 243.398 81.7073 244.344 80.7611L246.636 83.053Z" fill="#F3F3F3"/>
<path d="M261.459 69.7224V84.9663H258.221V69.7224H261.459Z" fill="#F3F3F3"/>
<path d="M285.008 83.116H277.187L276.325 84.9663H272.729L279.899 69.7224H282.296L289.466 84.9663H285.913L285.05 83.116H285.008ZM283.495 79.878L281.098 74.7897L278.701 79.878H283.495Z" fill="#F3F3F3"/>
<path d="M303.932 75.9882V84.9663H300.694V69.7224H303.343L309.924 78.7006V69.7224H313.162V84.9663H310.513L303.932 75.9882Z" fill="#F3F3F3"/>
<path d="M62.5315 37.0059C60.8915 35.3659 58.2212 35.3659 56.5811 37.0059L34.3776 59.2094C32.7376 60.8495 32.7376 63.5198 34.3776 65.1598L34.9663 65.7485C36.6064 67.3886 39.2767 67.3886 40.9167 65.7485L56.5811 50.0841C58.2212 48.4441 60.8915 48.4441 62.5315 50.0841L72.0774 59.63C73.7174 61.27 73.6964 63.9193 72.0353 65.5383L51.2616 85.7654C49.6005 87.3844 46.9092 87.3633 45.2691 85.7233L7.77963 48.3179C6.1396 46.6779 3.46929 46.6779 1.82925 48.3179L1.24052 48.9067C-0.39951 50.5467 -0.39951 53.217 1.24052 54.857L45.185 98.7384C46.8251 100.378 49.5164 100.4 51.1774 98.7805L85.2187 65.6224C86.8797 64.0034 86.9007 61.3331 85.2607 59.7141L62.5315 36.9849V37.0059Z" fill="#F3F3F3"/>
<path d="M51.1354 1.21953C49.4954 -0.420506 46.8251 -0.420506 45.185 1.21953L9.65098 36.7536C8.01095 38.3936 8.01095 41.0639 9.65098 42.704L10.2397 43.2927C11.8797 44.9327 14.5501 44.9327 16.1901 43.2927L45.164 14.3188C46.804 12.6787 49.4744 12.6787 51.1144 14.3188L91.2742 54.4786C92.9142 56.1186 95.5845 56.1186 97.2246 54.4786L97.8133 53.8898C99.4533 52.2498 99.4533 49.5795 97.8133 47.9395L51.1354 1.21953Z" fill="#ABCF3B"/>
<path d="M132.044 50.3575H148.738V59.7351H121.615V15.9588H132.044V50.3785V50.3575Z" fill="#ACCE39"/>
<path d="M196.194 25.3364H178.469V33.1581H193.061V42.5358H178.469V50.3575H196.194V59.7351H168.04V15.9588H196.194V25.3364Z" fill="#ACCE39"/>
<path d="M247.372 59.7561L244.344 52.4601H226.556L223.78 59.7561H212.363L229.941 15.9588H240.097L258.242 59.7561H247.372ZM230.151 43.0614H240.454L235.303 29.4996L230.151 43.0614Z" fill="#ACCE39"/>
<path d="M292.073 15.9588C299.327 15.9588 304.983 18.0194 309.02 22.1615C313.057 26.2826 315.076 31.5181 315.076 37.868C315.076 44.2178 313.015 49.3903 308.915 53.5534C304.815 57.6955 299.201 59.7771 292.073 59.7771H275.442V15.9588H292.073ZM292.788 50.3785C295.921 50.3785 298.675 49.1379 301.072 46.6569C303.469 44.1758 304.647 41.2532 304.647 37.8469C304.647 34.4407 303.448 31.5181 301.072 29.058C298.675 26.577 295.921 25.3364 292.788 25.3364H285.87V50.3575H292.788V50.3785Z" fill="#ACCE39"/>
</g>
<defs>
<clipPath id="clip0_864_3106">
<rect width="315.076" height="100" fill="white"/>
</clipPath>
</defs>
</svg>
