<svg width="57" height="57" viewBox="0 0 57 57" fill="none" xmlns="http://www.w3.org/2000/svg">
<path d="M57 28.5C57 44.2401 44.2401 57 28.5 57C12.7599 57 0 44.2401 0 28.5C0 12.7599 12.7599 0 28.5 0C44.2401 0 57 12.7599 57 28.5ZM5.01466 28.5C5.01466 41.4706 15.5294 51.9853 28.5 51.9853C41.4706 51.9853 51.9853 41.4706 51.9853 28.5C51.9853 15.5294 41.4706 5.01466 28.5 5.01466C15.5294 5.01466 5.01466 15.5294 5.01466 28.5Z" fill="#132A3A"/>
<path d="M51.1962 11.2625C48.5287 7.75023 45.0824 4.90499 41.1287 2.9507C37.1749 0.996412 32.8215 -0.0136069 28.4112 0.000138413L28.4268 5.01477C32.0611 5.00345 35.6485 5.83575 38.9066 7.44618C42.1647 9.05661 45.0046 11.4012 47.2027 14.2955L51.1962 11.2625Z" fill="#ACCE39"/>
<path d="M22.8207 31.3953V22.4187C24.9304 21.3627 26.2479 21.6828 28.622 22.4187C30.9669 21.4619 32.2317 21.6323 34.4537 22.4187V31.3953C32.0218 30.6233 30.7244 30.5818 28.622 31.7617C26.3391 30.7988 25.0661 30.5854 22.8207 31.3953Z" stroke="#ACCE39"/>
<path d="M17.6302 33.3493L16.4073 35.1838C15.9642 35.8483 16.4406 36.7385 17.2393 36.7385H39.993C40.8 36.7385 41.2746 35.8316 40.8146 35.1685L39.5527 33.3493M17.6302 33.3493V21.8539C17.6302 20.7493 18.5256 19.8539 19.6302 19.8539H37.5527C38.6572 19.8539 39.5527 20.7493 39.5527 21.8539V33.3493M17.6302 33.3493H39.5527" stroke="black"/>
<path d="M23.92 24.6171C24.5001 24.3016 26.045 23.8599 27.5839 24.6171" stroke="#ACCE39"/>
<path d="M23.92 27.9756C24.5001 27.6601 26.045 27.2184 27.5839 27.9756" stroke="#ACCE39"/>
<path d="M29.6601 24.6077C30.2402 24.2922 31.7851 23.8505 33.324 24.6077" stroke="#ACCE39"/>
<path d="M29.6601 27.9663C30.2402 27.6508 31.7851 27.2091 33.324 27.9663" stroke="#ACCE39"/>
<path d="M28.622 31.7617V22.4187" stroke="#ACCE39"/>
</svg>
