<svg width="79" height="78" viewBox="0 0 79 78" fill="none" xmlns="http://www.w3.org/2000/svg">
<path d="M45.5777 10.3997C44.5702 10.1072 43.5302 9.87969 42.4577 9.74969C39.3377 9.35969 36.3477 9.58719 33.5527 10.3997C34.4952 7.99469 36.8352 6.30469 39.5652 6.30469C42.2952 6.30469 44.6352 7.99469 45.5777 10.3997Z" stroke="#ACCE39" stroke-width="2" stroke-miterlimit="10" stroke-linecap="round" stroke-linejoin="round"/>
<path d="M49.3149 63.5703C49.3149 68.9328 44.9274 73.3203 39.5649 73.3203C36.8999 73.3203 34.4299 72.2153 32.6749 70.4603C30.9199 68.7053 29.8149 66.2353 29.8149 63.5703" stroke="#ACCE39" stroke-width="2" stroke-miterlimit="10"/>
<path d="M39.5649 9.45752C28.8074 9.45752 20.0649 18.2 20.0649 28.9575V38.35C20.0649 40.3325 19.2199 43.355 18.2124 45.045L14.4749 51.2525C12.1674 55.0875 13.7599 59.345 17.9849 60.775C31.9924 65.455 47.1049 65.455 61.1124 60.775C65.0449 59.475 66.7674 54.8275 64.6224 51.2525L60.8849 45.045C59.9099 43.355 59.0649 40.3325 59.0649 38.35V28.9575C59.0649 18.2325 50.2899 9.45752 39.5649 9.45752Z" stroke="#292D32" stroke-width="2" stroke-miterlimit="10" stroke-linecap="round"/>
</svg>
