<svg width="25" height="25" viewBox="0 0 25 25" fill="none" xmlns="http://www.w3.org/2000/svg">
<path d="M12.9219 3.41003C9.61188 3.41003 6.92188 6.10003 6.92188 9.41003V12.3C6.92188 12.91 6.66188 13.84 6.35188 14.36L5.20188 16.27C4.49188 17.45 4.98188 18.76 6.28188 19.2C10.5919 20.64 15.2419 20.64 19.5519 19.2C20.7619 18.8 21.2919 17.37 20.6319 16.27L19.4819 14.36C19.1819 13.84 18.9219 12.91 18.9219 12.3V9.41003C18.9219 6.11003 16.2219 3.41003 12.9219 3.41003Z" stroke="white" stroke-width="1.5" stroke-miterlimit="10" stroke-linecap="round"/>
<path d="M14.7718 3.69994C14.4618 3.60994 14.1418 3.53994 13.8118 3.49994C12.8518 3.37994 11.9318 3.44994 11.0718 3.69994C11.3618 2.95994 12.0818 2.43994 12.9218 2.43994C13.7618 2.43994 14.4818 2.95994 14.7718 3.69994Z" stroke="white" stroke-width="1.5" stroke-miterlimit="10" stroke-linecap="round" stroke-linejoin="round"/>
<path d="M15.9219 19.5601C15.9219 21.2101 14.5719 22.5601 12.9219 22.5601C12.1019 22.5601 11.3419 22.2201 10.8019 21.6801C10.2619 21.1401 9.92188 20.3801 9.92188 19.5601" stroke="white" stroke-width="1.5" stroke-miterlimit="10"/>
</svg>
