<svg width="43" height="43" viewBox="0 0 43 43" fill="none" xmlns="http://www.w3.org/2000/svg">
<path opacity="0.58" d="M43 0H0V43H43V0Z" fill="white"/>
<path d="M34.0416 12.5417C34.0416 12.8642 34.0237 13.1688 33.9879 13.4734C33.7729 16.0713 32.6262 18.4184 30.8882 20.1384C28.9532 22.0913 26.2658 23.2917 23.2916 23.2917H17.6837C16.7878 23.2917 16.0354 23.9546 15.9099 24.8325L14.5483 34.2925C14.4408 34.9913 13.9391 35.5646 13.2762 35.7438C13.1149 35.8154 12.9537 35.8333 12.7745 35.8333H9.28075C8.16992 35.8333 7.32785 34.8479 7.50702 33.755L11.7891 8.08042C12.2191 5.4825 14.4587 3.58334 17.0924 3.58334H25.0833C30.0283 3.58334 34.0416 7.59668 34.0416 12.5417Z" fill="#ACCE39"/>
<path opacity="0.4" d="M37.625 19.7084C37.625 22.1809 36.6217 24.4204 35.0092 26.0508C33.3788 27.6633 31.1392 28.6667 28.6667 28.6667H24.8146C23.9367 28.6667 23.1841 29.2938 23.0408 30.1717L21.7509 37.9117C21.6075 38.7896 20.855 39.4167 19.9771 39.4167H14.7275C13.5987 39.4167 12.7566 38.3775 12.9716 37.2667L13.2763 35.7438C13.9392 35.5646 14.4408 34.9913 14.5483 34.2925L15.91 24.8325C16.0354 23.9546 16.7879 23.2917 17.6837 23.2917H23.2917C26.2658 23.2917 28.9533 22.0913 30.8883 20.1384C32.6262 18.4184 33.7729 16.0713 33.9879 13.4734C36.1558 14.7096 37.625 17.0388 37.625 19.7084Z" fill="#ACCE39"/>
</svg>
