<svg width="12" height="12" viewBox="0 0 12 12" fill="none" xmlns="http://www.w3.org/2000/svg">
<path opacity="0.4" d="M6 11.0049C8.76142 11.0049 11 8.76631 11 6.00488C11 3.24346 8.76142 1.00488 6 1.00488C3.23858 1.00488 1 3.24346 1 6.00488C1 8.76631 3.23858 11.0049 6 11.0049Z" fill="#132A3A"/>
<path d="M6 3.46997C4.965 3.46997 4.125 4.30997 4.125 5.34497C4.125 6.35997 4.92 7.18497 5.975 7.21497C5.99 7.21497 6.01 7.21497 6.02 7.21497C6.03 7.21497 6.045 7.21497 6.055 7.21497C6.06 7.21497 6.065 7.21497 6.065 7.21497C7.075 7.17997 7.87 6.35997 7.875 5.34497C7.875 4.30997 7.035 3.46997 6 3.46997Z" fill="#132A3A"/>
<path d="M9.38986 9.68012C8.49986 10.5001 7.30986 11.0051 5.99986 11.0051C4.68986 11.0051 3.49986 10.5001 2.60986 9.68012C2.72986 9.22512 3.05486 8.81012 3.52986 8.49012C4.89486 7.58012 7.11486 7.58012 8.46986 8.49012C8.94986 8.81012 9.26986 9.22512 9.38986 9.68012Z" fill="#132A3A"/>
</svg>
