<svg width="148" height="148" viewBox="0 0 148 148" fill="none" xmlns="http://www.w3.org/2000/svg">
<path d="M148 74C148 114.869 114.869 148 74 148C33.1309 148 0 114.869 0 74C0 33.1309 33.1309 0 74 0C114.869 0 148 33.1309 148 74ZM5.92 74C5.92 111.6 36.4005 142.08 74 142.08C111.6 142.08 142.08 111.6 142.08 74C142.08 36.4005 111.6 5.92 74 5.92C36.4005 5.92 5.92 36.4005 5.92 74Z" fill="white"/>
<path d="M27.8847 16.1262C14.1828 27.0442 4.79909 42.4694 1.40332 59.657C-1.99245 76.8445 0.820054 94.6794 9.34032 109.988C17.8606 125.296 31.5359 137.085 47.9327 143.257C64.3295 149.428 82.3842 149.582 98.8837 143.691C115.383 137.799 129.257 126.245 138.037 111.084C146.817 95.923 149.933 78.1386 146.83 60.8957C143.728 43.6528 134.608 28.0699 121.094 16.9201C107.581 5.77033 90.5491 -0.223119 73.0308 0.00634747L73.1083 5.92584C89.2251 5.71473 104.894 11.2287 117.327 21.4865C129.76 31.7443 138.15 46.0806 141.004 61.944C143.858 77.8075 140.992 94.1692 132.914 108.117C124.837 122.066 112.073 132.695 96.893 138.115C81.7134 143.536 65.1032 143.394 50.0181 137.716C34.933 132.038 22.3517 121.193 14.5131 107.109C6.67445 93.0251 4.08695 76.617 7.21105 60.8044C10.3352 44.9919 18.9682 30.8006 31.5739 20.7561L27.8847 16.1262Z" fill="#132A3A"/>
</svg>
