<svg width="25" height="24" viewBox="0 0 25 24" fill="none" xmlns="http://www.w3.org/2000/svg">
<path d="M22.3625 4.66994V16.74C22.3625 17.7 21.5825 18.5999 20.6225 18.7199L20.2925 18.76C18.1125 19.05 14.7525 20.1599 12.8325 21.2199C12.5725 21.3699 12.1425 21.3699 11.8725 21.2199L11.8325 21.2C9.91246 20.15 6.56252 19.05 4.39252 18.76L4.10248 18.7199C3.14248 18.5999 2.36249 17.7 2.36249 16.74V4.65993C2.36249 3.46993 3.33246 2.56994 4.52246 2.66994C6.62246 2.83994 9.80246 3.89997 11.5825 5.00997L11.8325 5.15993C12.1225 5.33994 12.6025 5.33994 12.8925 5.15993L13.0625 5.04995C13.6925 4.65995 14.4925 4.26994 15.3625 3.91994V7.99996L17.3625 6.66994L19.3625 7.99996V2.77999C19.6325 2.72999 19.8925 2.69995 20.1325 2.67995H20.1925C21.3825 2.57995 22.3625 3.46994 22.3625 4.66994Z" stroke="#132A3A" stroke-width="1.5" stroke-linecap="round" stroke-linejoin="round"/>
<path d="M12.3625 5.48999V20.49" stroke="#132A3A" stroke-width="1.5" stroke-linecap="round" stroke-linejoin="round"/>
<path d="M19.3625 2.78003V8L17.3625 6.66998L15.3625 8V3.91998C16.6725 3.39998 18.1325 2.98003 19.3625 2.78003Z" stroke="#ACCE39" stroke-width="1.5" stroke-linecap="round" stroke-linejoin="round"/>
</svg>
