<svg width="17" height="16" viewBox="0 0 17 16" fill="none" xmlns="http://www.w3.org/2000/svg">
<path d="M3.24596 16C2.5453 16 1.87258 15.71 1.33644 15.1734C0.147666 13.9807 0.147666 12.0409 1.33616 10.8491L10.6056 1.00574C12.0519 -0.44284 14.2672 -0.312677 15.884 1.3061C16.6084 2.03181 17.0149 3.07802 16.9996 4.17769C16.9844 5.26576 16.5593 6.30705 15.8328 7.03482L8.82724 14.4929C8.63225 14.7018 8.30529 14.7113 8.09715 14.5153C7.88951 14.3191 7.87944 13.9916 8.0752 13.7834L15.0914 6.31402C15.6402 5.76418 15.955 4.98422 15.9666 4.16321C15.9782 3.3417 15.6815 2.56717 15.1536 2.03799C14.1619 1.04421 12.5472 0.523811 11.3468 1.72705L2.07759 11.5704C1.2806 12.3694 1.28086 13.6527 2.06726 14.4412C2.43604 14.8102 2.87379 14.99 3.33995 14.9618C3.80121 14.9337 4.27537 14.6971 4.67516 14.2963L12.0505 6.4462C12.3178 6.17838 12.855 5.52189 12.3083 4.97386C11.9986 4.66369 11.7812 4.6828 11.7096 4.68874C11.5054 4.70682 11.2667 4.84809 11.0191 5.09653L5.46776 11.0006C5.27174 11.209 4.94452 11.2191 4.73764 11.0226C4.52974 10.8268 4.52019 10.4988 4.71569 10.2912L10.2771 4.37599C10.7143 3.93669 11.1614 3.69857 11.6164 3.65777C11.9715 3.62624 12.4997 3.70193 13.0384 4.24221C13.838 5.04331 13.7386 6.21841 12.7918 7.16726L5.41638 15.0168C4.82755 15.6077 4.11654 15.9509 3.40323 15.9948C3.3508 15.9984 3.29837 16 3.24595 16L3.24596 16Z" fill="#999999"/>
</svg>
