<svg width="15" height="14" viewBox="0 0 15 14" fill="none" xmlns="http://www.w3.org/2000/svg">
<path d="M8.47664 2.04754L9.50331 4.10087C9.64331 4.38671 10.0166 4.66087 10.3316 4.71337L12.1925 5.02254C13.3825 5.22087 13.6625 6.08421 12.805 6.93587L11.3583 8.38254C11.1133 8.62754 10.9791 9.10004 11.055 9.43837L11.4691 11.2292C11.7958 12.6467 11.0433 13.195 9.78914 12.4542L8.04498 11.4217C7.72998 11.235 7.21081 11.235 6.88998 11.4217L5.14581 12.4542C3.89748 13.195 3.13914 12.6409 3.46581 11.2292L3.87998 9.43837C3.95581 9.10004 3.82164 8.62754 3.57664 8.38254L2.12998 6.93587C1.27831 6.08421 1.55248 5.22087 2.74248 5.02254L4.60331 4.71337C4.91248 4.66087 5.28581 4.38671 5.42581 4.10087L6.45248 2.04754C7.01248 0.933372 7.92248 0.933372 8.47664 2.04754Z" stroke="#FFE60A" stroke-linecap="round" stroke-linejoin="round"/>
</svg>
