<svg width="126" height="126" viewBox="0 0 126 126" fill="none" xmlns="http://www.w3.org/2000/svg">
<mask id="mask0_20_12721" style="mask-type:luminance" maskUnits="userSpaceOnUse" x="0" y="0" width="126" height="126">
<path d="M126 0H0V126H126V0Z" fill="white"/>
</mask>
<g mask="url(#mask0_20_12721)">
<path d="M114.463 58.4977C115.031 64.9886 107.254 70.52 105.407 76.3693C103.492 82.4328 106.598 91.4113 102.574 96.2067C98.5498 101.002 89.1687 99.503 83.5297 102.441C78.09 105.276 73.9933 113.896 67.5024 114.464C61.0115 115.032 55.4801 107.254 49.6309 105.407C43.5675 103.493 34.5888 106.598 29.7934 102.574C24.998 98.5501 26.4969 89.169 23.5588 83.53C20.7244 78.0903 12.1043 73.9935 11.5364 67.5027C10.9685 61.0118 18.7463 55.4804 20.593 49.6311C22.5073 43.5678 19.4022 34.5891 23.426 29.7937C27.4498 24.9983 36.8313 26.4972 42.4701 23.5591C47.9098 20.7247 52.0066 12.1046 58.4974 11.5367C64.9883 10.9688 70.5197 18.7466 76.369 20.5933C82.4325 22.5076 91.411 19.4025 96.2064 23.4263C101.002 27.4501 99.5027 36.8316 102.441 42.4704C105.275 47.9101 113.896 52.0069 114.463 58.4977Z" fill="#FCFFF3"/>
<path d="M102.441 42.4701C99.5025 36.8311 101.002 27.4498 96.2064 23.426C91.411 19.402 82.4323 22.5074 76.3687 20.5931C70.5195 18.7461 64.9881 10.9686 58.4972 11.5365C57.2437 11.6461 56.0802 12.0583 54.9783 12.669C59.9553 14.3819 64.4679 19.7312 69.1878 21.2213C75.2513 23.1356 84.2301 20.0302 89.0255 24.0543C93.8206 28.0781 92.3215 37.4594 95.2599 43.0984C98.0942 48.5381 106.714 52.6347 107.282 59.1258C107.85 65.6166 100.072 71.1478 98.2256 76.997C96.3111 83.0606 99.4165 92.0393 95.3927 96.8347C91.3689 101.63 81.9873 100.131 76.3485 103.069C71.9591 105.356 68.4439 111.408 63.8401 113.959C65.0313 114.369 66.2486 114.573 67.5022 114.463C73.993 113.896 78.0898 105.275 83.5295 102.441C89.1683 99.5028 98.5498 101.002 102.574 96.2065C106.597 91.4111 103.492 82.4324 105.407 76.3688C107.253 70.5196 115.031 64.9884 114.463 58.4975C113.895 52.0064 105.275 47.9098 102.441 42.4701Z" fill="#EBFDAE"/>
<path d="M54.4182 104.988C48.3546 103.073 39.3761 106.179 34.5805 102.155C29.7851 98.1311 31.2842 88.7495 28.3461 83.1108C25.5115 77.6711 16.8916 73.5743 16.3237 67.0834C15.7558 60.5925 23.5334 55.0614 25.3803 49.2121C27.2946 43.1483 24.1895 34.1698 28.2133 29.3745C32.2371 24.5791 41.6184 26.0782 47.2574 23.14C52.0071 20.6649 55.7333 13.7798 60.9233 11.6947C60.1281 11.5275 59.3206 11.4642 58.4975 11.5363C52.0064 12.1042 47.9098 20.7243 42.4701 23.5589C36.8311 26.497 27.4498 24.9979 23.426 29.7933C19.4022 34.5887 22.5073 43.5672 20.593 49.6309C18.7463 55.4802 10.9685 61.0114 11.5364 67.5022C12.1043 73.9931 20.7244 78.0899 23.5588 83.5296C26.4969 89.1684 24.9978 98.5499 29.7932 102.574C34.5888 106.598 43.5673 103.492 49.6309 105.407C55.4801 107.253 61.0113 115.031 67.5024 114.463C68.3256 114.391 69.1099 114.189 69.8639 113.886C64.3906 112.734 59.5255 106.6 54.4182 104.988Z" fill="white"/>
<path d="M94.4835 99.8769C90.6949 100.563 86.5687 100.857 83.5295 102.441C78.0898 105.276 73.9932 113.895 67.5024 114.463C61.0115 115.031 55.4801 107.254 49.6309 105.407C43.5673 103.492 34.5888 106.598 29.7932 102.574C24.9981 98.5499 26.4969 89.1686 23.5588 83.5296C20.7244 78.0899 12.1043 73.9933 11.5364 67.5022C10.9685 61.0114 18.7463 55.4802 20.593 49.6309C22.5073 43.5674 19.4022 34.5889 23.426 29.7933C27.4498 24.9979 36.8311 26.497 42.4701 23.5589C47.9098 20.7243 52.0066 12.1041 58.4974 11.5363C64.9883 10.9684 70.5195 18.7462 76.3688 20.5931C82.4325 22.5074 91.4111 19.4023 96.2064 23.4261C101.002 27.4499 99.5027 36.8312 102.441 42.4702C105.275 47.9099 113.896 52.0064 114.463 58.4973C115.031 64.9884 107.254 70.5196 105.407 76.3689C103.492 82.4324 106.598 91.4111 102.574 96.2065C101.666 97.2883 100.485 98.0501 99.1362 98.6144" stroke="#393E62" stroke-linecap="round" stroke-linejoin="round"/>
<path d="M98.7997 60.1903C100.351 79.9621 85.5813 97.2481 65.8095 98.7999C46.0377 100.352 28.7516 85.5815 27.1998 65.8097C25.6481 46.0379 40.4182 28.7519 60.1901 27.2001C79.9619 25.6483 97.2479 40.4185 98.7997 60.1903Z" fill="#EBFFA7"/>
<path d="M60.1901 27.2001C58.9817 27.2949 57.7924 27.4492 56.6241 27.6589C74.8557 28.0352 90.1828 42.1888 91.6397 60.7522C93.0967 79.3157 80.1653 95.687 62.2156 98.9033C63.4023 98.9276 64.6012 98.8947 65.8095 98.7999C85.5813 97.2481 100.351 79.9621 98.7997 60.1903C97.248 40.4185 79.9619 25.6483 60.1901 27.2001Z" fill="#ACCE39"/>
<path d="M31.9732 65.4351C30.4844 46.4657 44.0208 29.7867 62.5831 27.0939C61.7897 27.1038 60.9922 27.1371 60.1901 27.2001C40.4182 28.7519 25.6481 46.0379 27.1998 65.8097C28.7516 85.5815 46.0377 100.352 65.8095 98.7999C66.6116 98.737 67.4046 98.6454 68.1898 98.5315C49.4347 98.7674 33.462 84.4045 31.9732 65.4351Z" fill="white"/>
<path d="M42.0365 33.8375C47.1905 30.1251 53.3948 27.7334 60.1901 27.2001C79.9616 25.6483 97.2479 40.4185 98.7997 60.1903C100.351 79.9621 85.5811 97.2482 65.8095 98.7999C46.0377 100.352 28.7516 85.5815 27.1998 65.8097C26.4441 56.1802 29.5597 47.1405 35.2391 40.2209" stroke="#393E62" stroke-linecap="round" stroke-linejoin="round"/>
<path d="M39.2128 36.7937C39.249 37.2551 38.9044 37.6584 38.443 37.6946C37.9817 37.7308 37.5783 37.3862 37.5421 36.9248C37.5059 36.4635 37.8506 36.0602 38.3119 36.0239C38.7732 35.9877 39.1766 36.3324 39.2128 36.7937Z" fill="#393E62"/>
<path d="M86.0262 44.9118C84.0624 43.1197 81.0177 43.2586 79.2256 45.2222L56.5095 70.111L45.8428 60.3757C43.8792 58.5833 40.8343 58.7223 39.0421 60.6861C37.2498 62.6496 37.3887 65.6946 39.3525 67.487L53.5748 80.4674C55.5384 82.2596 58.5831 82.1206 60.3755 80.157L86.3366 51.7127C88.129 49.7489 87.99 46.7042 86.0262 44.9118Z" fill="white"/>
<path d="M86.0262 44.9119C84.3802 43.4098 81.9776 43.2698 80.1866 44.4182C80.5514 44.6076 80.8994 44.8413 81.2174 45.1313C83.1812 46.9237 83.3202 49.9684 81.5278 51.9322L55.5666 80.3766C55.2766 80.6944 54.9511 80.9596 54.6053 81.1811C56.4933 82.1618 58.8731 81.8029 60.3754 80.1571L86.3366 51.7127C88.129 49.7489 87.99 46.7042 86.0262 44.9119Z" fill="#EBEBEB"/>
<path d="M78.1978 60.6308L86.337 51.7131C88.1291 49.7493 87.9901 46.7046 86.0266 44.9122C84.0628 43.1201 81.0183 43.259 79.2262 45.2226L56.5096 70.1114L45.8433 60.3761C43.8797 58.5837 40.8348 58.7227 39.0424 60.6865C37.2503 62.6503 37.3893 65.695 39.3528 67.4874L53.5751 80.4678C55.5389 82.2602 58.5834 82.1212 60.3755 80.1574L74.9357 64.2049" stroke="#393E62" stroke-linecap="round" stroke-linejoin="round"/>
<path d="M15.7263 23.6845L9.47372 26.4988" stroke="#393E62" stroke-linecap="round" stroke-linejoin="round"/>
<path d="M14.0072 28.2179L11.1929 21.9653" stroke="#393E62" stroke-linecap="round" stroke-linejoin="round"/>
<path d="M21.876 15.7822L17.6355 17.6908" stroke="#393E62" stroke-linecap="round" stroke-linejoin="round"/>
<path d="M20.7099 18.8568L18.8013 14.6163" stroke="#393E62" stroke-linecap="round" stroke-linejoin="round"/>
<path d="M110.274 102.569L116.526 99.7551" stroke="#393E62" stroke-linecap="round" stroke-linejoin="round"/>
<path d="M111.993 98.0359L114.807 104.289" stroke="#393E62" stroke-linecap="round" stroke-linejoin="round"/>
<path d="M104.147 110.472L108.388 108.563" stroke="#393E62" stroke-linecap="round" stroke-linejoin="round"/>
<path d="M105.313 107.397L107.222 111.638" stroke="#393E62" stroke-linecap="round" stroke-linejoin="round"/>
</g>
</svg>
